<mxfile host="app.diagrams.net" modified="2024-01-20T10:17:27.560Z" agent="Mozilla/5.0 (X11; Linux x86_64) AppleWebKit/537.36 (KHTML, like Gecko) Chrome/120.0.0.0 Safari/537.36" etag="9CR7Jp2MZQx3b44Dhljc" version="22.1.20" type="github">
  <diagram name="Page-1" id="cTTuPL3hMU2ZwI6a6cDx">
    <mxGraphModel dx="880" dy="499" grid="1" gridSize="10" guides="1" tooltips="1" connect="1" arrows="1" fold="1" page="1" pageScale="1" pageWidth="827" pageHeight="1169" math="0" shadow="0">
      <root>
        <mxCell id="0" />
        <mxCell id="1" parent="0" />
        <mxCell id="NmCQkpYAsU9My6dq_rCh-1" value="&lt;font style=&quot;font-size: 15px;&quot;&gt;User Interaction&lt;/font&gt;" style="html=1;dropTarget=0;whiteSpace=wrap;" vertex="1" parent="1">
          <mxGeometry x="10" y="80" width="180" height="90" as="geometry" />
        </mxCell>
        <mxCell id="NmCQkpYAsU9My6dq_rCh-2" value="" style="shape=module;jettyWidth=8;jettyHeight=4;" vertex="1" parent="NmCQkpYAsU9My6dq_rCh-1">
          <mxGeometry x="1" width="20" height="20" relative="1" as="geometry">
            <mxPoint x="-27" y="7" as="offset" />
          </mxGeometry>
        </mxCell>
        <mxCell id="NmCQkpYAsU9My6dq_rCh-3" value="&lt;font style=&quot;font-size: 15px;&quot;&gt;Backend Servers&lt;/font&gt;" style="html=1;dropTarget=0;whiteSpace=wrap;" vertex="1" parent="1">
          <mxGeometry x="340" y="80" width="180" height="90" as="geometry" />
        </mxCell>
        <mxCell id="NmCQkpYAsU9My6dq_rCh-4" value="" style="shape=module;jettyWidth=8;jettyHeight=4;" vertex="1" parent="NmCQkpYAsU9My6dq_rCh-3">
          <mxGeometry x="1" width="20" height="20" relative="1" as="geometry">
            <mxPoint x="-27" y="7" as="offset" />
          </mxGeometry>
        </mxCell>
        <mxCell id="NmCQkpYAsU9My6dq_rCh-5" value="&lt;font style=&quot;font-size: 15px;&quot;&gt;Payment Gateway&lt;/font&gt;" style="html=1;dropTarget=0;whiteSpace=wrap;" vertex="1" parent="1">
          <mxGeometry x="40" y="340" width="180" height="90" as="geometry" />
        </mxCell>
        <mxCell id="NmCQkpYAsU9My6dq_rCh-6" value="" style="shape=module;jettyWidth=8;jettyHeight=4;" vertex="1" parent="NmCQkpYAsU9My6dq_rCh-5">
          <mxGeometry x="1" width="20" height="20" relative="1" as="geometry">
            <mxPoint x="-27" y="7" as="offset" />
          </mxGeometry>
        </mxCell>
        <mxCell id="NmCQkpYAsU9My6dq_rCh-7" value="&lt;font style=&quot;font-size: 15px;&quot;&gt;Wi-Fi Provider&lt;/font&gt;" style="html=1;dropTarget=0;whiteSpace=wrap;" vertex="1" parent="1">
          <mxGeometry x="350" y="350" width="180" height="90" as="geometry" />
        </mxCell>
        <mxCell id="NmCQkpYAsU9My6dq_rCh-8" value="" style="shape=module;jettyWidth=8;jettyHeight=4;" vertex="1" parent="NmCQkpYAsU9My6dq_rCh-7">
          <mxGeometry x="1" width="20" height="20" relative="1" as="geometry">
            <mxPoint x="-27" y="7" as="offset" />
          </mxGeometry>
        </mxCell>
        <mxCell id="NmCQkpYAsU9My6dq_rCh-9" value="&lt;font style=&quot;font-size: 15px;&quot;&gt;Database&lt;/font&gt;" style="html=1;dropTarget=0;whiteSpace=wrap;" vertex="1" parent="1">
          <mxGeometry x="610" y="210" width="180" height="90" as="geometry" />
        </mxCell>
        <mxCell id="NmCQkpYAsU9My6dq_rCh-10" value="" style="shape=module;jettyWidth=8;jettyHeight=4;" vertex="1" parent="NmCQkpYAsU9My6dq_rCh-9">
          <mxGeometry x="1" width="20" height="20" relative="1" as="geometry">
            <mxPoint x="-27" y="7" as="offset" />
          </mxGeometry>
        </mxCell>
        <mxCell id="NmCQkpYAsU9My6dq_rCh-11" value="" style="rounded=0;orthogonalLoop=1;jettySize=auto;html=1;endArrow=halfCircle;endFill=0;endSize=6;strokeWidth=1;sketch=0;entryX=1;entryY=0.7;entryDx=0;entryDy=0;entryPerimeter=0;" edge="1" target="NmCQkpYAsU9My6dq_rCh-13" parent="1">
          <mxGeometry relative="1" as="geometry">
            <mxPoint x="340" y="130" as="sourcePoint" />
            <mxPoint x="255" y="131" as="targetPoint" />
          </mxGeometry>
        </mxCell>
        <mxCell id="NmCQkpYAsU9My6dq_rCh-12" value="" style="rounded=0;orthogonalLoop=1;jettySize=auto;html=1;endArrow=oval;endFill=0;sketch=0;sourcePerimeterSpacing=0;targetPerimeterSpacing=0;endSize=10;exitX=1;exitY=0.5;exitDx=0;exitDy=0;" edge="1" target="NmCQkpYAsU9My6dq_rCh-13" parent="1" source="NmCQkpYAsU9My6dq_rCh-15">
          <mxGeometry relative="1" as="geometry">
            <mxPoint x="190" y="140" as="sourcePoint" />
          </mxGeometry>
        </mxCell>
        <mxCell id="NmCQkpYAsU9My6dq_rCh-13" value="" style="ellipse;whiteSpace=wrap;html=1;align=center;aspect=fixed;fillColor=none;strokeColor=none;resizable=0;perimeter=centerPerimeter;rotatable=0;allowArrows=0;points=[];outlineConnect=1;" vertex="1" parent="1">
          <mxGeometry x="250" y="125" width="10" height="10" as="geometry" />
        </mxCell>
        <mxCell id="NmCQkpYAsU9My6dq_rCh-15" value="" style="whiteSpace=wrap;html=1;" vertex="1" parent="1">
          <mxGeometry x="180" y="125" width="20" height="15" as="geometry" />
        </mxCell>
      </root>
    </mxGraphModel>
  </diagram>
</mxfile>
